
<svg width="19px" height="18px" viewBox="0 0 19 18" version="1.1" xmlns="http://www.w3.org/2000/svg" xmlns:xlink="http://www.w3.org/1999/xlink">
	<g transform="translate(-180.000000, -525.000000)" fill="#A98860">
		<g transform="translate(20.000000, 478.000000)">
			<path d="M177.668897,62.0337349 L171.050973,55.5 L177.648216,48.9662651 L177.668897,48.9457831 C178.041362,48.5361446 178.041362,47.9012048 177.648216,47.5325301 C177.441406,47.3277108 177.172759,47.2253012 176.883018,47.2253012 C176.614165,47.2253012 176.365993,47.3481928 176.180071,47.5325301 L169.582621,54.0662651 L162.778567,47.3072289 C162.571757,47.1024096 162.302904,47 162.01337,47 C161.744516,47 161.496344,47.1228916 161.310215,47.3072289 C161.124086,47.5120482 161,47.7781084 161.020681,48.0445783 C161.020681,48.3108434 161.144974,48.5566265 161.330896,48.7409639 L168.13495,55.5 L161.310215,62.2590361 C161.103405,62.4638554 161,62.7299157 161,63.0168675 C161,63.2831325 161.124086,63.5289157 161.310215,63.7130482 C161.455189,63.8361446 161.682473,64 162.034051,64 C162.406309,64 162.6338,63.8361446 162.778567,63.7130482 L169.603302,56.9542169 L176.200545,63.4879518 C176.345519,63.6313253 176.572803,63.7746988 176.945061,63.7746988 C177.317527,63.7746988 177.544811,63.6106386 177.689785,63.4879518 C177.896595,63.2831325 178,63.0168675 178,62.7299157 C177.979112,62.4638554 177.875707,62.2178675 177.668897,62.0337349" transform="translate(169.500000, 55.500000) rotate(-1.000000) translate(-169.500000, -55.500000) "></path>
		</g>
	</g>
</svg>
