<svg xmlns="http://www.w3.org/2000/svg" xmlns:xlink="http://www.w3.org/1999/xlink" width="13" height="18" viewBox="0 0 13 18"><defs><path id="a" d="M1179.5 3837c.54 0 .97.45.97 1v10.34l3.88-3.74c.34-.34 1.06-.41 1.43-.01.36.39.24 1.11-.09 1.45l-5.52 5.32c-.46.38-.89.35-1.34 0l-5.53-5.32c-.31-.36-.44-1.05-.08-1.45.36-.4 1.06-.39 1.43.01l3.87 3.74V3838a1 1 0 0 1 .98-1zm5.52 15.97c.54 0 .98.44.98.99a1 1 0 0 1-.98 1h-11.05a1 1 0 0 1-.97-1c0-.55.44-.99.97-.99z"/></defs><g transform="translate(-1173 -3837)"><use fill="#a98860" xlink:href="#a"/></g></svg>
