<?xml version="1.0" encoding="UTF-8"?>
<svg width="13px" height="13px" viewBox="0 0 13 13" version="1.1" xmlns="http://www.w3.org/2000/svg" xmlns:xlink="http://www.w3.org/1999/xlink">
    <!-- Generator: Sketch 48.1 (47250) - http://www.bohemiancoding.com/sketch -->
    <title>Instagram</title>
    <desc>Created with Sketch.</desc>
    <defs></defs>
    <g id="Artboard" stroke="none" stroke-width="1" fill="none" fill-rule="evenodd">
        <g id="Instagram-color" fill="#7A90A6" fill-rule="nonzero">
            <path d="M6.500013,0 C4.7347059,0 4.51335246,0.00748258333 3.8200584,0.0391156458 C3.12820923,0.0706709792 2.65570094,0.180561062 2.242253,0.341254604 C1.81482058,0.507340708 1.45233129,0.729597104 1.09095133,1.09095133 C0.729597104,1.45233129 0.507340708,1.81482058 0.341254604,2.242253 C0.180561063,2.65570094 0.0706709792,3.12820923 0.0391156458,3.8200584 C0.00748258333,4.51335246 0,4.7347059 0,6.500013 C0,8.2652941 0.00748258333,8.48664754 0.0391156458,9.1799416 C0.0706709792,9.87179077 0.180561063,10.3442991 0.341254604,10.757747 C0.507340708,11.1851794 0.729597104,11.5476687 1.09095133,11.9090487 C1.45233129,12.2704029 1.81482058,12.4926593 2.242253,12.6587714 C2.65570094,12.8194389 3.12820923,12.929329 3.8200584,12.9608844 C4.51335246,12.9925174 4.7347059,13 6.500013,13 C8.2652941,13 8.48664754,12.9925174 9.1799416,12.9608844 C9.87179077,12.929329 10.3442991,12.8194389 10.757747,12.6587714 C11.1851794,12.4926593 11.5476687,12.2704029 11.9090487,11.9090487 C12.2704029,11.5476687 12.4926593,11.1851794 12.6587714,10.757747 C12.8194389,10.3442991 12.929329,9.87179077 12.9608844,9.1799416 C12.9925174,8.48664754 13,8.2652941 13,6.500013 C13,4.7347059 12.9925174,4.51335246 12.9608844,3.8200584 C12.929329,3.12820923 12.8194389,2.65570094 12.6587714,2.242253 C12.4926593,1.81482058 12.2704029,1.45233129 11.9090487,1.09095133 C11.5476687,0.729597104 11.1851794,0.507340708 10.757747,0.341254604 C10.3442991,0.180561062 9.87179077,0.0706709792 9.1799416,0.0391156458 C8.48664754,0.00748258333 8.2652941,0 6.500013,0 Z M6.500013,1.17116919 C8.23557042,1.17116919 8.44115892,1.17780027 9.12655792,1.20907204 C9.76030142,1.23796996 10.1044715,1.34386038 10.3335139,1.43287652 C10.6369171,1.55079085 10.853446,1.69164288 11.0808885,1.91911146 C11.3083571,2.14655404 11.4492091,2.36308285 11.5671235,2.66648606 C11.6561396,2.89552846 11.76203,3.23969858 11.790928,3.87344208 C11.8221997,4.55884108 11.8288308,4.76442958 11.8288308,6.500013 C11.8288308,8.23557042 11.8221997,8.44115892 11.790928,9.12655792 C11.76203,9.76030142 11.6561396,10.1044715 11.5671235,10.3335139 C11.4492091,10.6369171 11.3083571,10.853446 11.0808885,11.0808885 C10.853446,11.3083571 10.6369171,11.4492091 10.3335139,11.5671235 C10.1044715,11.6561396 9.76030142,11.76203 9.12655792,11.790928 C8.4412621,11.8221997 8.23569933,11.8288308 6.500013,11.8288308 C4.76430067,11.8288308 4.55876362,11.8221997 3.87344208,11.790928 C3.23969858,11.76203 2.89552846,11.6561396 2.66648606,11.5671235 C2.36308285,11.4492091 2.14655404,11.3083571 1.91911146,11.0808885 C1.6916686,10.853446 1.55079085,10.6369171 1.43287652,10.3335139 C1.34386038,10.1044715 1.23796996,9.76030142 1.20907204,9.12655792 C1.17780027,8.44115892 1.17116919,8.23557042 1.17116919,6.500013 C1.17116919,4.76442958 1.17780027,4.55884108 1.20907204,3.87344208 C1.23796996,3.23969858 1.34386038,2.89552846 1.43287652,2.66648606 C1.55079085,2.36308285 1.69164287,2.14655404 1.91911146,1.91911146 C2.14655404,1.69164288 2.36308285,1.55079085 2.66648606,1.43287652 C2.89552846,1.34386038 3.23969858,1.23796996 3.87344208,1.20907204 C4.55884108,1.17780027 4.76442958,1.17116919 6.500013,1.17116919 Z M6.500013,3.16216415 C4.65655233,3.16216415 3.16216415,4.65655233 3.16216415,6.500013 C3.16216415,8.34344767 4.65655233,9.83783585 6.500013,9.83783585 C8.34344767,9.83783585 9.83783585,8.34344767 9.83783585,6.500013 C9.83783585,4.65655233 8.34344767,3.16216415 6.500013,3.16216415 Z M6.500013,8.66666667 C5.30337735,8.66666667 4.33333333,7.69662265 4.33333333,6.500013 C4.33333333,5.30337735 5.30337735,4.33333333 6.500013,4.33333333 C7.69662265,4.33333333 8.66666667,5.30337735 8.66666667,6.500013 C8.66666667,7.69662265 7.69662265,8.66666667 6.500013,8.66666667 Z M10.7497227,3.03029133 C10.7497227,3.46107802 10.4004954,3.81027942 9.96970867,3.81027942 C9.53894771,3.81027942 9.18972058,3.46107802 9.18972058,3.03029133 C9.18972058,2.59950465 9.53894771,2.25027725 9.96970867,2.25027725 C10.4004954,2.25027725 10.7497227,2.59950465 10.7497227,3.03029133 Z" id="Instagram"></path>
        </g>
    </g>
</svg>