<svg width="17px" height="13px" viewBox="0 0 17 13" version="1.1" xmlns="http://www.w3.org/2000/svg" xmlns:xlink="http://www.w3.org/1999/xlink">
	<g transform="translate(-213.000000, -493.000000)" fill-rule="nonzero" fill="#7A90A6">
		<g transform="translate(101.000000, 492.000000)">
			<g transform="translate(112.200000, 1.400000)">
				<path d="M0,11.9984429 L0,3.0482699 C0.440749698,3.28027682 0.816203144,3.45934256 1.17859734,3.67110727 C3.31215236,4.95103806 5.44733978,6.22629758 7.56293833,7.53269896 C7.97593712,7.78806228 8.2550786,7.78961938 8.6713422,7.53269896 C11.1330109,6.02854671 13.6159008,4.54463668 16.2,3 L16.2,12 L0,12 L0,11.9984429 Z" id="Shape"></path>
				<path d="M0.091187429,0 L16.1083798,0 C16.3546237,0.863230408 16.1083798,1.41601465 15.3226674,1.88801954 C13.0546317,3.2533491 10.8319567,4.68520284 8.60928164,6.11705658 C8.22695562,6.36256248 7.96127143,6.35939466 7.58866556,6.11705658 C5.36437051,4.68361893 3.14169549,3.25018128 0.875279783,1.88009999 C0.0895674035,1.41284683 -0.153436425,0.858478681 0.091187429,0 Z" id="Shape"></path>
			</g>
		</g>
	</g>
</svg>
