<svg width="15px" height="16px" viewBox="0 0 15 16" version="1.1" xmlns="http://www.w3.org/2000/svg" xmlns:xlink="http://www.w3.org/1999/xlink">
	<g transform="translate(-177.000000, -450.000000)" fill="#7A90A6">
		<g transform="translate(177.000000, 450.000000)">
			<path d="M2.3816,0.1117 C2.9210027,0.1117 3.37669814,0.302348093 3.7487,0.68365 C4.12070186,1.06495191 4.3067,1.5252973 4.3067,2.0647 C4.3067,2.6041027 4.12070186,3.05979814 3.7487,3.4318 C3.37669814,3.80380186 2.9210027,3.9898 2.3816,3.9898 C1.8421973,3.9898 1.39115181,3.80380186 1.02845,3.4318 C0.665748187,3.05979814 0.4844,2.6041027 0.4844,2.0647 C0.4844,1.5252973 0.665748187,1.06495191 1.02845,0.68365 C1.39115181,0.302348093 1.8421973,0.1117 2.3816,0.1117 Z"></path>
			<path d="M8.5754,5.1337 L8.5754,5.6359 C9.17060298,5.33829851 9.84019628,5.20809981 10.5842,5.2453 C11.3282037,5.28250019 11.997797,5.44989851 12.593,5.7475 C13.2254032,6.10090177 13.7322481,6.61239665 14.11355,7.282 C14.4948519,7.95160335 14.6855,8.63979647 14.6855,9.3466 L14.6855,15.931 L11.6165,15.931 L11.6165,9.3466 C11.6165,9.19779926 11.5607006,9.02110102 11.4491,8.8165 C11.3374994,8.61189898 11.2166007,8.49100019 11.0864,8.4538 C10.7701984,8.28639916 10.4633015,8.22129981 10.1657,8.2585 C9.86809851,8.29570019 9.59840121,8.37009944 9.3566,8.4817 C9.07759861,8.61190065 8.81720121,8.78859888 8.5754,9.0118 L8.5754,15.931 L5.4506,15.931 L5.4506,5.1337 L8.5754,5.1337 Z"></path>
			<polygon points="0.8192 15.931 0.8192 5.1337 3.944 5.1337 3.944 15.931"></polygon>
		</g>
	</g>
</svg>
