<svg width="17px" height="14px" viewBox="0 0 17 14" version="1.1" xmlns="http://www.w3.org/2000/svg" xmlns:xlink="http://www.w3.org/1999/xlink">
	<g transform="translate(-101.000000, -452.000000)" fill="#7A90A6">
		<path d="M117.7532,454.1293 C117.306798,454.780303 116.748803,455.366197 116.0792,455.887 L116.0792,456.2776 C116.0792,457.393606 115.869952,458.523544 115.45145,459.66745 C115.032948,460.811356 114.419154,461.843645 113.61005,462.76435 C112.800946,463.685055 111.805856,464.433697 110.62475,465.0103 C109.443644,465.586903 108.081208,465.8752 106.5374,465.8752 C105.588795,465.8752 104.682054,465.740351 103.81715,465.47065 C102.952246,465.200949 102.138504,464.824302 101.3759,464.3407 C101.506101,464.3593 101.636299,464.3686 101.7665,464.3686 L102.185,464.3686 C103.784608,464.3686 105.170294,463.894305 106.3421,462.9457 C105.598096,462.9271 104.942453,462.699252 104.37515,462.26215 C103.807847,461.825048 103.421901,461.271703 103.2173,460.6021 C103.440501,460.6579 103.645099,460.6858 103.8311,460.6858 C103.998501,460.6858 104.151949,460.6765 104.29145,460.6579 C104.430951,460.6393 104.575099,460.6114 104.7239,460.5742 C103.942696,460.406799 103.296353,460.020853 102.78485,459.41635 C102.273347,458.811847 102.0176,458.100404 102.0176,457.282 L102.0176,457.2541 C102.240801,457.365701 102.477949,457.4587 102.72905,457.5331 C102.980151,457.6075 103.263798,457.6447 103.58,457.6447 C103.096398,457.347099 102.724401,456.956502 102.464,456.4729 C102.203599,455.989298 102.0734,455.449903 102.0734,454.8547 C102.0734,454.259497 102.222199,453.692203 102.5198,453.1528 C103.356804,454.194405 104.370494,455.026747 105.5609,455.64985 C106.751306,456.272953 108.043993,456.6124 109.439,456.6682 C109.3832,456.444999 109.3553,456.203201 109.3553,455.9428 C109.3553,455.477798 109.443649,455.036052 109.62035,454.61755 C109.797051,454.199048 110.038848,453.836352 110.34575,453.52945 C110.652652,453.222548 111.006048,452.980751 111.40595,452.80405 C111.805852,452.627349 112.238298,452.539 112.7033,452.539 C113.205503,452.539 113.661198,452.636649 114.0704,452.83195 C114.479602,453.027251 114.842298,453.282998 115.1585,453.5992 C115.530502,453.5434 115.902498,453.441101 116.2745,453.2923 C116.646502,453.143499 116.990598,452.985401 117.3068,452.818 C117.009199,453.599204 116.516303,454.212998 115.8281,454.6594 C116.181502,454.6222 116.516298,454.5571 116.8325,454.4641 C117.148702,454.3711 117.455599,454.259501 117.7532,454.1293 Z"></path>
	</g>
</svg>
