<svg width="10" height="18" viewBox="0 0 10 18" version="1.1" xmlns="http://www.w3.org/2000/svg" xmlns:xlink="http://www.w3.org/1999/xlink">
	<g stroke="none" stroke-width="1" fill="none" fill-rule="evenodd">
		<g transform="translate(-143.000000, -450.000000)" fill="#7A90A6">
			<path d="M145.8611,456.5566 L145.8611,454.9384 C145.8611,454.343197 145.963399,453.785203 146.168,453.2644 C146.372601,452.743597 146.651598,452.292552 147.005,451.91125 C147.358402,451.529948 147.772248,451.227701 148.24655,451.0045 C148.720852,450.781299 149.227697,450.6697 149.7671,450.6697 L152.3897,450.6697 L152.3897,453.8782 L149.7671,453.8782 C149.618299,453.8782 149.474151,453.975849 149.33465,454.17115 C149.195149,454.366451 149.1254,454.603599 149.1254,454.8826 L149.1254,456.5566 L152.3897,456.5566 L152.3897,459.8209 L149.1254,459.8209 L149.1254,467.7445 L145.8611,467.7445 L145.8611,459.8209 L143.2385,459.8209 L143.2385,456.5566 L145.8611,456.5566 Z"></path>
		</g>
	</g>
</svg>
